<?xml version="1.0" standalone="no"?>
<!DOCTYPE svg PUBLIC "-//W3C//DTD SVG 1.1//EN" "http://www.w3.org/Graphics/SVG/1.1/DTD/svg11.dtd" >
<!--
2013-9-30: Created.
-->
<svg>
<metadata>
Created by iconfont
</metadata>
<defs>

<font id="iconfont" horiz-adv-x="1024" >
  <font-face
    font-family="iconfont"
    font-weight="500"
    font-stretch="normal"
    units-per-em="1024"
    ascent="896"
    descent="-128"
  />
    <missing-glyph />
    
    <glyph glyph-name="x" unicode="x" horiz-adv-x="1001"
d="M281 543q-27 -1 -53 -1h-83q-18 0 -36.5 -6t-32.5 -18.5t-23 -32t-9 -45.5v-76h912v41q0 16 -0.5 30t-0.5 18q0 13 -5 29t-17 29.5t-31.5 22.5t-49.5 9h-133v-97h-438v97zM955 310v-52q0 -23 0.5 -52t0.5 -58t-10.5 -47.5t-26 -30t-33 -16t-31.5 -4.5q-14 -1 -29.5 -0.5
t-29.5 0.5h-32l-45 128h-439l-44 -128h-29h-34q-20 0 -45 1q-25 0 -41 9.5t-25.5 23t-13.5 29.5t-4 30v167h911zM163 247q-12 0 -21 -8.5t-9 -21.5t9 -21.5t21 -8.5q13 0 22 8.5t9 21.5t-9 21.5t-22 8.5zM316 123q-8 -26 -14 -48q-5 -19 -10.5 -37t-7.5 -25t-3 -15t1 -14.5
t9.5 -10.5t21.5 -4h37h67h81h80h64h36q23 0 34 12t2 38q-5 13 -9.5 30.5t-9.5 34.5q-5 19 -11 39h-368zM336 498v228q0 11 2.5 23t10 21.5t20.5 15.5t34 6h188q31 0 51.5 -14.5t20.5 -52.5v-227h-327z" />
    

    
    <glyph glyph-name="tupian" unicode="&#59113;" d="M690 212.5 574.1 97.8c-0.1-0.1-0.3-0.2-0.4-0.3-9.1-9.1-9.1-23.9 0-33.1 9.1-9.1 23.9-9.1 33.1 0 0.6 0.6 0.8 1.4 1.4 2l69.9 69.9 33 33.1c0 0 22.7-21.3 23.2-21 8.7-4.1 19.3-2.8 26.4 4.4 9.1 9.1 9.1 23.9 0 33.1 0 0 0 0 0 0l0 0-16.5 16.5c0 0-3.1 3.5-4.8 5.2C725.8 221.1 705.1 222.7 690 212.5zM783.2 97.4 783.2 97.4l10.6-10.7 0 0c0 0 0 0 0 0 9.1-9.1 23.9-9.1 33.1 0 9.1 9.1 9.1 23.9 0 33.1 0 0 0 0 0 0l0 0-10.7 10.7-0.1-0.1c-0.1 0.1-0.2 0.3-0.3 0.4-9.1 9.1-23.9 9.1-33.1 0-9.1-9.1-9.1-23.9 0-33.1C782.9 97.6 783 97.5 783.2 97.4zM856.2 763.1 169.8 763.1C100.8 763.1 45 707.3 45 638.3l0-686.4c0-68.9 55.9-124.8 124.8-124.8l686.4 0c68.9 0 124.8 55.9 124.8 124.8L981 638.3C981 707.3 925.1 763.1 856.2 763.1zM918.6-48.1c0-34.5-27.9-62.4-62.4-62.4L169.8-110.5c-34.5 0-62.4 27.9-62.4 62.4l0 74 166 158.9c5.6 4.7 9.2 5 14.8 0.1l127.5-104.3c11-7.7 23-17.3 32.4-17.3s20.6 3.2 32.7 15.3l231.7 231.7c1.2-0.1 2.4-0.4 3.7-0.4 0.4 0 0.8 0.1 1.2 0.1l201.2-216L918.6-48.1zM918.6 185.6 752 364.4c-6 13.8-19.7 23.5-35.8 23.5-14.4 0-26.8-7.8-33.5-19.4l-228-228c-6.6-4.7-6.6-4.7-13.8 0L311.5 246.4c-7.1 9.5-18.4 15.7-31.1 15.7-6.5 0-12.6-1.8-18-4.6l-6.1-3.9c-2-1.5-3.7-3.3-5.4-5.1L107.4 111 107.4 638.3c0 34.5 27.9 62.4 62.4 62.4l686.4 0c34.5 0 62.4-27.9 62.4-62.4L918.6 185.6zM325.8 607.1c-51.7 0-93.6-41.9-93.6-93.6s41.9-93.6 93.6-93.6 93.6 41.9 93.6 93.6S377.5 607.1 325.8 607.1zM325.8 482.3c-17.2 0-31.2 14-31.2 31.2s14 31.2 31.2 31.2c17.2 0 31.2-14 31.2-31.2S343 482.3 325.8 482.3zM731.3 129.9"  horiz-adv-x="1024" />

    
    <glyph glyph-name="liebiaoyangshi" unicode="&#58924;" d="M923.981395 792.948837 95.255814 792.948837c-28.576744 0-71.44186-28.576744-71.44186-71.44186l0-71.44186c0-28.576744 28.576744-71.44186 71.44186-71.44186l828.725581 0c28.576744 0 71.44186 28.576744 71.44186 71.44186l0 71.44186C995.423256 764.372093 952.55814 792.948837 923.981395 792.948837zM923.981395 397.637209 95.255814 397.637209c-28.576744 0-71.44186-28.576744-71.44186-71.44186l0-71.44186c0-28.576744 28.576744-71.44186 71.44186-71.44186l828.725581 0c28.576744 0 71.44186 28.576744 71.44186 71.44186L995.423256 330.95814C995.423256 373.823256 952.55814 397.637209 923.981395 397.637209zM923.981395 21.376744 95.255814 21.376744c-28.576744 0-71.44186-28.576744-71.44186-71.44186l0-71.44186c0-28.576744 28.576744-71.44186 71.44186-71.44186l828.725581 0c28.576744 0 71.44186 28.576744 71.44186 71.44186l0 85.730233C995.423256-7.2 952.55814 21.376744 923.981395 21.376744z"  horiz-adv-x="1029" />

    
    <glyph glyph-name="weixin" unicode="&#58899;" d="M579.598841 384.445217A24.635362 24.635362 0 0 1 556.521739 360.255072a24.264348 24.264348 0 0 1 23.373913-21.667246c17.511884 0 29.681159 10.833623 29.68116 21.667246 0 13.356522-12.54029 24.190145-29.68116 24.190145zM502.798841 497.011014a27.826087 27.826087 0 0 1 29.681159 29.16174 27.38087 27.38087 0 0 1-29.681159 29.161739c-17.511884 0-34.207536-10.833623-34.207537-29.161739s16.695652-29.161739 34.207537-29.16174zM512 896a512 512 0 1 1 512-512A512 512 0 0 1 512 896zM415.536232 254.293333a275.812174 275.812174 0 0 0-82.587826 13.356522l-84.591305-42.592464 24.190145 71.754203C213.333333 338.513623 178.086957 391.42029 178.086957 455.308986c0 113.456232 106.777971 200.347826 236.929855 200.347826 115.088696 0 217.711304-68.415072 237.449275-165.175653a115.533913 115.533913 0 0 1-22.26087 2.522899c-113.456232 0-201.015652-85.110725-201.015652-187.65913a201.089855 201.089855 0 0 1 6.678261-50.086957 175.044638 175.044638 0 0 0-20.851014-0.816232z m347.863188-81.623188l16.695652-60.030145-63.369275 35.84c-24.190145-4.971594-47.564058-12.54029-71.754203-12.54029-111.749565 0-200.347826 76.725797-200.347826 171.853913s88.449855 171.853913 200.347826 171.853913c105.590725-0.148406 200.941449-76.874203 200.941449-172.002319 0-53.351884-35.84-100.915942-82.587826-135.123478zM337.623188 555.408696c-17.511884 0-35.84-10.833623-35.84-29.161739s18.328116-29.235942 35.84-29.235943a28.716522 28.716522 0 0 1 29.68116 29.235943 28.197101 28.197101 0 0 1-29.68116 29.161739z m372.869566-170.666667a24.041739 24.041739 0 0 1-23.373913-24.190145 23.596522 23.596522 0 0 1 23.373913-21.667246c16.695652 0 29.161739 10.833623 29.161739 21.667246 0 13.356522-12.54029 24.190145-29.161739 24.190145z m0 0"  horiz-adv-x="1024" />

    
    <glyph glyph-name="quxiao" unicode="&#58968;" d="M1023.998635 383.118008A511.992491 511.992491 0 1 0 513.439723 895.997952 511.992491 511.992491 0 0 0 1023.998635 383.118008z m-601.898372 1.433579c-5.597785-4.642065-8.66974-6.826567-11.332101-9.488928q-63.6236-63.418803-127.042403-126.905872a27.306266 27.306266 0 0 1 0-42.666041q24.370843-24.507374 48.878216-48.741685a27.647595 27.647595 0 0 1 44.714011 0l126.291481 126.223215c2.594095 2.594095 5.324722 5.051659 8.328411 7.918818 3.071955-2.867158 5.802582-5.392988 8.328412-7.918818l127.042403-126.974137a27.306266 27.306266 0 0 1 43.280432 0c15.9059 15.701103 31.607003 31.538737 47.376372 47.308106a28.466782 28.466782 0 0 1 0 47.035043L612.424938 375.881847c-2.594095 2.52583-4.983394 5.256456-9.079334 9.693725a95.571932 95.571932 0 0 1 9.488928 6.826566q62.872678 62.667881 125.540559 125.540559a28.19372 28.19372 0 0 1 0 46.215855c-15.564572 15.564572-31.060878 31.129143-46.693715 46.62545a27.852391 27.852391 0 0 1-45.396668 0l-126.291481-126.223216c-2.52583-2.52583-5.256456-4.915128-8.942802-8.464942-2.935424 3.481549-5.188191 6.826567-7.782286 9.147599L376.362267 612.285846a27.306266 27.306266 0 0 1-42.597775 0c-16.110697-15.9059-32.084863-32.016597-47.785966-47.785965a28.125454 28.125454 0 0 1 0-46.215856q62.736147-62.872678 125.608824-125.540559a98.848684 98.848684 0 0 1 11.059038-8.055348z"  horiz-adv-x="1024" />

    
    <glyph glyph-name="liebiao" unicode="&#59367;" d="M477.207589 481.513918c0-40.645722-33.257451-73.901127-73.901127-73.901127H140.642181c-40.646746 0-73.901127 33.257451-73.901127 73.901127V755.358843c0 40.646746 33.257451 73.901127 73.901127 73.901127h262.664281c40.645722 0 73.901127-33.257451 73.901127-73.901127v-273.844925zM477.207589 12.642181c0-40.646746-33.257451-73.901127-73.901127-73.901127H140.642181c-40.646746 0-73.901127 33.257451-73.901127 73.901127V286.480966c0 40.646746 33.257451 73.901127 73.901127 73.901127h262.664281c40.645722 0 73.901127-33.257451 73.901127-73.901127v-273.838785zM957.2569 481.513918c0-40.645722-33.257451-73.901127-73.901127-73.901127H620.678188c-40.646746 0-73.901127 33.257451-73.901127 73.901127V755.358843c0 40.646746 33.257451 73.901127 73.901127 73.901127h262.677585c40.646746 0 73.901127-33.257451 73.901127-73.901127v-273.844925zM957.258946 12.642181c0-40.646746-33.257451-73.901127-73.901127-73.901127H620.678188c-40.646746 0-73.901127 33.257451-73.901127 73.901127V286.480966c0 40.646746 33.257451 73.901127 73.901127 73.901127h262.679631c40.646746 0 73.901127-33.257451 73.901127-73.901127v-273.838785z"  horiz-adv-x="1024" />

    
    <glyph glyph-name="gouxuan" unicode="&#58885;" d="M512 879.0016C238.592 879.0016 16.9984 657.408 16.9984 384S238.592-111.0016 512-111.0016 1007.0016 110.592 1007.0016 384 785.408 879.0016 512 879.0016z m-38.7072-672.1536l-53.248-53.248L196.608 377.0368l53.4528 53.4528 169.984-169.984 353.8944 353.8944 53.4528-53.4528-354.0992-354.0992z"  horiz-adv-x="1024" />

    
    <glyph glyph-name="paixubiaoqian" unicode="&#58897;" d="M78.4384 562.9952L512 56.7296l433.5616 506.2656z"  horiz-adv-x="1024" />

    
    <glyph glyph-name="icon-test" unicode="&#58977;" d="M510.683429 893.220571a508.123429 508.123429 0 0 1 0-1016.173714 508.123429 508.123429 0 0 1 0 1016.173714z m-3.291429-863.670857c-41.325714 0-74.971429 32.914286-74.971429 73.508572 0 40.521143 33.499429 73.435429 74.971429 73.435428 41.325714 0 74.971429-32.914286 74.971429-73.435428s-33.499429-73.508571-74.971429-73.508572zM708.754286 445.293714c-14.701714-23.113143-45.933714-54.564571-93.769143-94.354285-24.795429-20.626286-40.228571-37.156571-46.08-49.737143-5.997714-12.580571-8.777143-34.962286-8.265143-67.291429H453.924571L453.485714 261.851429c0 34.523429 5.705143 62.902857 17.115429 85.211428 11.483429 22.308571 34.377143 47.469714 68.608 75.264 34.157714 27.940571 54.710857 46.08 61.44 54.784 10.24 13.677714 15.506286 28.745143 15.506286 45.056 0 22.820571-9.216 42.276571-27.501715 58.660572-18.212571 16.237714-42.934857 24.429714-73.874285 24.429714-29.915429 0-54.857143-8.557714-74.971429-25.453714-20.114286-16.969143-37.376-54.345143-41.472-77.531429-3.876571-21.796571-109.056-31.012571-107.812571 13.238857 1.316571 44.324571 24.356571 92.306286 63.780571 127.122286 39.497143 34.816 91.355429 52.224 155.428571 52.224 67.510857 0 121.124571-17.700571 161.060572-52.955429s59.757714-76.288 59.757714-123.099428a134.582857 134.582857 0 0 0-21.796571-73.581715z"  horiz-adv-x="1024" />

    
    <glyph glyph-name="bianji" unicode="&#59012;" d="M437.527273 262.392635a47.134638 47.134638 0 0 0-33.324189 80.458826L899.140345 837.81229a47.134638 47.134638 0 1 0 66.648378-66.648377L470.851461 276.203084a46.898964 46.898964 0 0 0-33.324188-13.810449zM812.129804-128H211.870196C95.046997-128 0-32.953003 0 83.870196V684.129804C0 800.953003 95.046997 896 211.870196 896h300.129804a47.134638 47.134638 0 0 0 0-94.269275H211.870196A117.742325 117.742325 0 0 1 94.269275 684.129804v-600.236041a117.742325 117.742325 0 0 1 117.600921-117.600921h600.259608a117.718757 117.718757 0 0 1 117.577354 117.600921V384a47.134638 47.134638 0 0 0 94.269275 0v-300.106237c0-116.846766-95.023429-211.893763-211.846629-211.893763z"  horiz-adv-x="1024" />

    
    <glyph glyph-name="tiaozhuan" unicode="&#58910;" d="M296.5 657.6l81.4 83.9 347.8-358.1-347.8-358.1-81.4 83.9 266.2 274.2-266.2 274.2m0 0z"  horiz-adv-x="1024" />

    
    <glyph glyph-name="paixubiaoqian-" unicode="&#58919;" d="M858.7 181L511.9 586 165 181h693.7z m0 0"  horiz-adv-x="1024" />

    
    <glyph glyph-name="paixubiaoqianzhengti" unicode="&#58920;" d="M841.7611 510.787293l-329.856214 385.212707-329.951329-385.212707h659.807543z m0 0M181.002415 257.212707l329.856214-385.212707 329.951328 385.212707H181.002415z m0 0"  horiz-adv-x="1024" />

    
    <glyph glyph-name="fenleiweijihuo" unicode="&#58965;" d="M511.6 793.8C285.3 793.8 102 610.5 102 384.2c0-226.2 183.4-409.6 409.6-409.6 226.2 0 409.6 183.4 409.6 409.6 0 226.3-183.4 409.6-409.6 409.6z m0-737.2c-180.7 0-327.7 147-327.7 327.7S330.9 712 511.6 712s327.7-147 327.7-327.7c-0.1-180.7-147.1-327.7-327.7-327.7zM720.9 252.9V593.3H380.5l-78.2-78.2v-340.4h340.4l78.8 78.2h-0.6z m-78.1 262.2v-92h-92v92h92z m-262.2 0h92v-92h-92v92z m0-262.2v92h92v-92h-92z m170.1 0v92h92v-92h-92z"  horiz-adv-x="1024" />

    
    <glyph glyph-name="huiyuanjihuo" unicode="&#58966;" d="M511.6 793.8C285.3 793.8 102 610.5 102 384.2c0-226.2 183.4-409.6 409.6-409.6 226.2 0 409.6 183.4 409.6 409.6 0 226.3-183.4 409.6-409.6 409.6z m245.7-327.6H668c-84-205.6-156.5-368.6-156.5-368.6s-72.5 163-156.4 368.6h-89.3v81.9h204.8v-81.9h-27.2c22.9-55.8 45.8-120.8 68.1-173.1 22.3 52.3 45.2 117.3 68.1 173.1h-27.2v81.9h204.8v-81.9z"  horiz-adv-x="1024" />

    
    <glyph glyph-name="huiyuanweijihuo" unicode="&#58967;" d="M512-25.6c-226.2 0-409.6 183.4-409.6 409.6 0 226.2 183.4 409.6 409.6 409.6 226.2 0 409.6-183.4 409.6-409.6 0-226.2-183.4-409.6-409.6-409.6z m0 737.3c-180.7 0-327.7-147-327.7-327.7s147-327.7 327.7-327.7 327.7 147 327.7 327.7-147 327.7-327.7 327.7z m156.5-245.8C584.5 260.3 512 97.3 512 97.3s-72.5 163.1-156.5 368.6h-89.3v81.9H471v-81.9h-27.2c22.9-55.8 45.8-120.8 68.1-173.1 22.3 52.3 45.2 117.3 68.1 173.1h-27v81.9h204.8v-81.9h-89.3z m0 0"  horiz-adv-x="1024" />

    
    <glyph glyph-name="fenleijihuo" unicode="&#58969;" d="M380.6 515.1h92v-92h-92zM550.7 344.9h92v-92h-92zM550.7 515.1h92v-92h-92zM511.6-25.4c226.2 0 409.6 183.4 409.6 409.6 0 226.2-183.4 409.6-409.6 409.6-222.9 0-404.2-178.1-409.5-399.7v-19.7c5.2-221.7 186.5-399.8 409.5-399.8zM302.4 344.9V515.1l78.2 78.2H721v-340.4h0.7l-78.8-78.2H302.5V344.9zM380.6 344.9h92v-92h-92zM550.7 515.1h92v-92h-92v92z m0-170.2h92v-92h-92v92zM380.6 515.1h92v-92h-92v92z m0-170.2h92v-92h-92v92z"  horiz-adv-x="1024" />

    
    <glyph glyph-name="gouwuchejihuo" unicode="&#58970;" d="M410.1 239.5h181.3l87.9 146.7H410.1zM511.6 793.8C285.3 793.8 102 610.5 102 384.2c0-226.2 183.4-409.6 409.6-409.6 226.2 0 409.6 183.4 409.6 409.6 0 226.3-183.4 409.6-409.6 409.6z m125.2-634.2H330.2V466.2h-68.1v79.9h148v-79.9h317l68.7-40.9-159-265.7z"  horiz-adv-x="1024" />

    
    <glyph glyph-name="shouyejihuo" unicode="&#58971;" d="M589.7 445.2L512 522.9l-77.7-77.7v-184.9h155.4zM511.6-25.4c226.2 0 409.6 183.4 409.6 409.6 0 226.2-183.4 409.6-409.6 409.6-222.9 0-404.2-178.1-409.5-399.7v-19.7c5.2-221.7 186.5-399.8 409.5-399.8z m-54.9 603.5l55.3 55.2L761.3 384 706 328.7 667.8 367v-106.7h60v-78.2H296.1v78.2h60V367l-38.2-38.2-55.3 55.3 194.1 194z"  horiz-adv-x="1024" />

    
    <glyph glyph-name="gouwucheweijihuo" unicode="&#58972;" d="M727.1 466.2h-317v79.9h-148v-79.9h68.1v-306.6h306.6l159 265.7-68.7 40.9z m-317-80h269.2l-87.8-146.8H410.1V386.2zM511.6 793.8C285.3 793.8 102 610.5 102 384.2c0-226.2 183.4-409.6 409.6-409.6 226.2 0 409.6 183.4 409.6 409.6 0 226.3-183.4 409.6-409.6 409.6z m0-737.2c-180.7 0-327.7 147-327.7 327.7S330.9 712 511.6 712s327.7-147 327.7-327.7c-0.1-180.7-147.1-327.7-327.7-327.7z"  horiz-adv-x="1024" />

    
    <glyph glyph-name="shouyeweijihuo" unicode="&#58973;" d="M511.6 793.8C285.3 793.8 102 610.5 102 384.2c0-226.2 183.4-409.6 409.6-409.6 226.2 0 409.6 183.4 409.6 409.6 0 226.3-183.4 409.6-409.6 409.6z m0-737.2c-180.7 0-327.7 147-327.7 327.7S330.9 712 511.6 712s327.7-147 327.7-327.7c-0.1-180.7-147.1-327.7-327.7-327.7zM589.7 453.5h78.2v-271.3h-78.2zM296.2 260.3h431.7v-78.2H296.2zM356.2 453.5h78.2v-271.3h-78.2zM262.621 384.101L456.65 578.13l55.296-55.296-194.029-194.028zM706.022 328.793L456.698 578.116l55.296 55.295 249.323-249.323z"  horiz-adv-x="1024" />

    
    <glyph glyph-name="shibaitubiao" unicode="&#58974;" d="M512 780c-218.7 0-396-177.3-396-396s177.3-396 396-396 396 177.3 396 396-177.3 396-396 396z m184.4-537.4l-42.9-42.9L512 341.1 370.6 199.6l-42.9 42.9L469.1 384 327.6 525.4l42.9 42.9L512 426.9l141.4 141.4 42.9-42.9L554.9 384l141.5-141.4z"  horiz-adv-x="1024" />

    
    <glyph glyph-name="yixiangdanjihuo" unicode="&#58975;" d="M474 418.4l-98.9 66v-177.8L512 215.4l136.9 91.2V484.4l-98.9-66-38-25.3zM512 817.8c-226.7 0-410.4-183.5-410.4-409.9C101.6 181.5 285.4-2 512-2c226.7 0 410.4 183.5 410.4 409.9 0 226.4-183.7 409.9-410.4 409.9zM717.4 270L512 133.1 306.6 270V612.4l205.5-137 205.4 137V270z"  horiz-adv-x="1024" />

    
    <glyph glyph-name="yixiangdanweijihuo" unicode="&#58976;" d="M512 794.2c-226.4 0-409.9-183.3-409.9-409.4 0-226.1 183.5-409.4 409.9-409.4 226.4 0 409.9 183.3 409.9 409.4 0 226.1-183.5 409.4-409.9 409.4m0-736.9c-180.8 0-327.9 146.9-327.9 327.5S331.2 712.3 512 712.3c180.8 0 327.9-146.9 327.9-327.5S692.8 57.3 512 57.3M549.9 395.4l98.9 65.9v-177.5L512 192.6l-136.8 91.2V461.3l98.9-65.9 38-25.3 37.8 25.3z m167.3 193.7L512 452.3 306.8 589.1v-342L512 110.4l205.1 136.7v342z"  horiz-adv-x="1024" />

    


  </font>
</defs>
</svg>
